<mxfile host="www.draw.io" modified="2019-10-26T03:02:44.654Z" agent="Mozilla/5.0 (Windows NT 10.0; Win64; x64) AppleWebKit/537.36 (KHTML, like Gecko) Chrome/78.0.3904.70 Safari/537.36" etag="qD6kgVus2bana-qaiEyT" version="12.1.7" type="github" pages="1">
  <diagram id="ILxC6_wEYAGkN3Qzh64Z" name="Page-1">
    <mxGraphModel dx="942" dy="582" grid="1" gridSize="10" guides="1" tooltips="1" connect="1" arrows="1" fold="1" page="1" pageScale="1" pageWidth="827" pageHeight="1169" math="0" shadow="0">
      <root>
        <mxCell id="0"/>
        <mxCell id="1" parent="0"/>
        <mxCell id="YYaNBqdhBjBN7z7zkRMa-1" value="" style="rounded=0;whiteSpace=wrap;html=1;" vertex="1" parent="1">
          <mxGeometry x="116" y="2180" width="680" height="270" as="geometry"/>
        </mxCell>
        <mxCell id="YYaNBqdhBjBN7z7zkRMa-2" value="" style="rounded=0;whiteSpace=wrap;html=1;fillColor=#f8cecc;strokeColor=#b85450;" vertex="1" parent="1">
          <mxGeometry x="450" y="1042" width="297" height="248" as="geometry"/>
        </mxCell>
        <mxCell id="YYaNBqdhBjBN7z7zkRMa-3" value="" style="rounded=0;whiteSpace=wrap;html=1;fillColor=#ffe6cc;strokeColor=#d79b00;" vertex="1" parent="1">
          <mxGeometry x="86" y="1040" width="125" height="73" as="geometry"/>
        </mxCell>
        <mxCell id="YYaNBqdhBjBN7z7zkRMa-4" value="CPU" style="text;html=1;strokeColor=none;fillColor=none;align=center;verticalAlign=middle;whiteSpace=wrap;rounded=0;direction=south;" vertex="1" parent="1">
          <mxGeometry x="135" y="1036.5" width="25" height="40" as="geometry"/>
        </mxCell>
        <mxCell id="YYaNBqdhBjBN7z7zkRMa-5" style="edgeStyle=orthogonalEdgeStyle;rounded=0;orthogonalLoop=1;jettySize=auto;html=1;exitX=0.25;exitY=1;exitDx=0;exitDy=0;entryX=0.25;entryY=0;entryDx=0;entryDy=0;" edge="1" parent="1" source="YYaNBqdhBjBN7z7zkRMa-6" target="YYaNBqdhBjBN7z7zkRMa-9">
          <mxGeometry relative="1" as="geometry"/>
        </mxCell>
        <mxCell id="YYaNBqdhBjBN7z7zkRMa-6" value="CPU Registers" style="rounded=0;whiteSpace=wrap;html=1;fillColor=#dae8fc;strokeColor=#6c8ebf;" vertex="1" parent="1">
          <mxGeometry x="106.5" y="1079" width="85" height="22" as="geometry"/>
        </mxCell>
        <mxCell id="YYaNBqdhBjBN7z7zkRMa-7" style="edgeStyle=orthogonalEdgeStyle;rounded=0;orthogonalLoop=1;jettySize=auto;html=1;exitX=0.75;exitY=0;exitDx=0;exitDy=0;entryX=0.75;entryY=1;entryDx=0;entryDy=0;" edge="1" parent="1" source="YYaNBqdhBjBN7z7zkRMa-9" target="YYaNBqdhBjBN7z7zkRMa-6">
          <mxGeometry relative="1" as="geometry"/>
        </mxCell>
        <mxCell id="YYaNBqdhBjBN7z7zkRMa-8" style="edgeStyle=orthogonalEdgeStyle;rounded=0;orthogonalLoop=1;jettySize=auto;html=1;exitX=0.25;exitY=1;exitDx=0;exitDy=0;entryX=0.131;entryY=-0.014;entryDx=0;entryDy=0;entryPerimeter=0;" edge="1" parent="1" source="YYaNBqdhBjBN7z7zkRMa-9" target="YYaNBqdhBjBN7z7zkRMa-12">
          <mxGeometry relative="1" as="geometry"/>
        </mxCell>
        <mxCell id="YYaNBqdhBjBN7z7zkRMa-9" value="CPU Cache&lt;br&gt;Memory" style="rounded=0;whiteSpace=wrap;html=1;fillColor=#dae8fc;strokeColor=#6c8ebf;" vertex="1" parent="1">
          <mxGeometry x="90" y="1150" width="118" height="51" as="geometry"/>
        </mxCell>
        <mxCell id="YYaNBqdhBjBN7z7zkRMa-10" style="edgeStyle=orthogonalEdgeStyle;rounded=0;orthogonalLoop=1;jettySize=auto;html=1;exitX=0.25;exitY=0;exitDx=0;exitDy=0;entryX=0.75;entryY=1;entryDx=0;entryDy=0;" edge="1" parent="1" source="YYaNBqdhBjBN7z7zkRMa-12" target="YYaNBqdhBjBN7z7zkRMa-9">
          <mxGeometry relative="1" as="geometry"/>
        </mxCell>
        <mxCell id="YYaNBqdhBjBN7z7zkRMa-11" style="edgeStyle=orthogonalEdgeStyle;rounded=0;orthogonalLoop=1;jettySize=auto;html=1;exitX=0.75;exitY=0;exitDx=0;exitDy=0;entryX=0.5;entryY=1;entryDx=0;entryDy=0;" edge="1" parent="1" source="YYaNBqdhBjBN7z7zkRMa-12" target="YYaNBqdhBjBN7z7zkRMa-19">
          <mxGeometry relative="1" as="geometry">
            <mxPoint x="330" y="1190" as="targetPoint"/>
          </mxGeometry>
        </mxCell>
        <mxCell id="YYaNBqdhBjBN7z7zkRMa-12" value="RAM- Main Memory&lt;br&gt;(主存)" style="rounded=0;whiteSpace=wrap;html=1;fillColor=#dae8fc;strokeColor=#6c8ebf;" vertex="1" parent="1">
          <mxGeometry x="90" y="1230" width="291" height="65" as="geometry"/>
        </mxCell>
        <mxCell id="YYaNBqdhBjBN7z7zkRMa-13" value="" style="rounded=0;whiteSpace=wrap;html=1;fillColor=#ffe6cc;strokeColor=#d79b00;" vertex="1" parent="1">
          <mxGeometry x="250" y="1040" width="120" height="70" as="geometry"/>
        </mxCell>
        <mxCell id="YYaNBqdhBjBN7z7zkRMa-14" value="CPU" style="text;html=1;strokeColor=none;fillColor=none;align=center;verticalAlign=middle;whiteSpace=wrap;rounded=0;" vertex="1" parent="1">
          <mxGeometry x="287.5" y="1042" width="40" height="25" as="geometry"/>
        </mxCell>
        <mxCell id="YYaNBqdhBjBN7z7zkRMa-15" style="edgeStyle=orthogonalEdgeStyle;rounded=0;orthogonalLoop=1;jettySize=auto;html=1;exitX=0.25;exitY=1;exitDx=0;exitDy=0;entryX=0.25;entryY=0;entryDx=0;entryDy=0;" edge="1" parent="1" source="YYaNBqdhBjBN7z7zkRMa-16" target="YYaNBqdhBjBN7z7zkRMa-19">
          <mxGeometry relative="1" as="geometry"/>
        </mxCell>
        <mxCell id="YYaNBqdhBjBN7z7zkRMa-16" value="CPU Registers" style="rounded=0;whiteSpace=wrap;html=1;fillColor=#dae8fc;strokeColor=#6c8ebf;" vertex="1" parent="1">
          <mxGeometry x="265" y="1075" width="85" height="22" as="geometry"/>
        </mxCell>
        <mxCell id="YYaNBqdhBjBN7z7zkRMa-17" style="edgeStyle=orthogonalEdgeStyle;rounded=0;orthogonalLoop=1;jettySize=auto;html=1;exitX=0.75;exitY=0;exitDx=0;exitDy=0;entryX=0.75;entryY=1;entryDx=0;entryDy=0;" edge="1" parent="1" source="YYaNBqdhBjBN7z7zkRMa-19" target="YYaNBqdhBjBN7z7zkRMa-16">
          <mxGeometry relative="1" as="geometry"/>
        </mxCell>
        <mxCell id="YYaNBqdhBjBN7z7zkRMa-18" style="edgeStyle=orthogonalEdgeStyle;rounded=0;orthogonalLoop=1;jettySize=auto;html=1;exitX=0.25;exitY=1;exitDx=0;exitDy=0;entryX=0.679;entryY=0.143;entryDx=0;entryDy=0;entryPerimeter=0;" edge="1" parent="1" source="YYaNBqdhBjBN7z7zkRMa-19" target="YYaNBqdhBjBN7z7zkRMa-12">
          <mxGeometry relative="1" as="geometry"/>
        </mxCell>
        <mxCell id="YYaNBqdhBjBN7z7zkRMa-19" value="CPU Cache&lt;br&gt;Memory" style="rounded=0;whiteSpace=wrap;html=1;fillColor=#dae8fc;strokeColor=#6c8ebf;" vertex="1" parent="1">
          <mxGeometry x="252.5" y="1146" width="115" height="55" as="geometry"/>
        </mxCell>
        <mxCell id="YYaNBqdhBjBN7z7zkRMa-20" value="Thread Stack" style="rounded=0;whiteSpace=wrap;html=1;fillColor=#d5e8d4;strokeColor=#82b366;" vertex="1" parent="1">
          <mxGeometry x="487" y="1077" width="111" height="47" as="geometry"/>
        </mxCell>
        <mxCell id="YYaNBqdhBjBN7z7zkRMa-21" value="Heap" style="rounded=0;whiteSpace=wrap;html=1;fillColor=#dae8fc;strokeColor=#6c8ebf;" vertex="1" parent="1">
          <mxGeometry x="492" y="1182" width="236" height="65" as="geometry"/>
        </mxCell>
        <mxCell id="YYaNBqdhBjBN7z7zkRMa-22" value="Thread Stack" style="rounded=0;whiteSpace=wrap;html=1;fillColor=#d5e8d4;strokeColor=#82b366;" vertex="1" parent="1">
          <mxGeometry x="617" y="1077" width="111" height="47" as="geometry"/>
        </mxCell>
        <mxCell id="YYaNBqdhBjBN7z7zkRMa-23" value="" style="endArrow=classic;html=1;exitX=0;exitY=0.5;exitDx=0;exitDy=0;entryX=1;entryY=0.75;entryDx=0;entryDy=0;" edge="1" parent="1" source="YYaNBqdhBjBN7z7zkRMa-20" target="YYaNBqdhBjBN7z7zkRMa-16">
          <mxGeometry width="50" height="50" relative="1" as="geometry">
            <mxPoint x="360" y="1110" as="sourcePoint"/>
            <mxPoint x="410" y="1060" as="targetPoint"/>
          </mxGeometry>
        </mxCell>
        <mxCell id="YYaNBqdhBjBN7z7zkRMa-24" value="" style="endArrow=classic;html=1;exitX=0;exitY=0.5;exitDx=0;exitDy=0;entryX=1;entryY=0.25;entryDx=0;entryDy=0;" edge="1" parent="1" source="YYaNBqdhBjBN7z7zkRMa-20" target="YYaNBqdhBjBN7z7zkRMa-19">
          <mxGeometry width="50" height="50" relative="1" as="geometry">
            <mxPoint x="370" y="1210" as="sourcePoint"/>
            <mxPoint x="420" y="1160" as="targetPoint"/>
          </mxGeometry>
        </mxCell>
        <mxCell id="YYaNBqdhBjBN7z7zkRMa-25" value="" style="endArrow=classic;html=1;exitX=0;exitY=0.5;exitDx=0;exitDy=0;entryX=1;entryY=0.25;entryDx=0;entryDy=0;" edge="1" parent="1" source="YYaNBqdhBjBN7z7zkRMa-20" target="YYaNBqdhBjBN7z7zkRMa-12">
          <mxGeometry width="50" height="50" relative="1" as="geometry">
            <mxPoint x="340" y="1330" as="sourcePoint"/>
            <mxPoint x="390" y="1280" as="targetPoint"/>
          </mxGeometry>
        </mxCell>
        <mxCell id="YYaNBqdhBjBN7z7zkRMa-26" value="" style="endArrow=classic;html=1;exitX=0;exitY=0.25;exitDx=0;exitDy=0;entryX=1;entryY=0.75;entryDx=0;entryDy=0;" edge="1" parent="1" source="YYaNBqdhBjBN7z7zkRMa-21" target="YYaNBqdhBjBN7z7zkRMa-16">
          <mxGeometry width="50" height="50" relative="1" as="geometry">
            <mxPoint x="330" y="1330" as="sourcePoint"/>
            <mxPoint x="380" y="1280" as="targetPoint"/>
          </mxGeometry>
        </mxCell>
        <mxCell id="YYaNBqdhBjBN7z7zkRMa-27" value="" style="endArrow=classic;html=1;exitX=0;exitY=0.25;exitDx=0;exitDy=0;entryX=1;entryY=0.5;entryDx=0;entryDy=0;" edge="1" parent="1" source="YYaNBqdhBjBN7z7zkRMa-21" target="YYaNBqdhBjBN7z7zkRMa-19">
          <mxGeometry width="50" height="50" relative="1" as="geometry">
            <mxPoint x="340" y="1360" as="sourcePoint"/>
            <mxPoint x="390" y="1310" as="targetPoint"/>
          </mxGeometry>
        </mxCell>
        <mxCell id="YYaNBqdhBjBN7z7zkRMa-28" value="" style="endArrow=classic;html=1;exitX=0;exitY=0.25;exitDx=0;exitDy=0;entryX=1;entryY=0.5;entryDx=0;entryDy=0;" edge="1" parent="1" source="YYaNBqdhBjBN7z7zkRMa-21" target="YYaNBqdhBjBN7z7zkRMa-12">
          <mxGeometry width="50" height="50" relative="1" as="geometry">
            <mxPoint x="380" y="1350" as="sourcePoint"/>
            <mxPoint x="430" y="1300" as="targetPoint"/>
          </mxGeometry>
        </mxCell>
        <mxCell id="YYaNBqdhBjBN7z7zkRMa-29" value="JVM" style="text;html=1;strokeColor=none;fillColor=none;align=center;verticalAlign=middle;whiteSpace=wrap;rounded=0;" vertex="1" parent="1">
          <mxGeometry x="480" y="1258" width="40" height="20" as="geometry"/>
        </mxCell>
        <mxCell id="YYaNBqdhBjBN7z7zkRMa-30" value="Thread A" style="rounded=0;whiteSpace=wrap;html=1;" vertex="1" parent="1">
          <mxGeometry x="115" y="1342.5" width="143" height="40" as="geometry"/>
        </mxCell>
        <mxCell id="YYaNBqdhBjBN7z7zkRMa-31" value="" style="rounded=0;whiteSpace=wrap;html=1;" vertex="1" parent="1">
          <mxGeometry x="119.5" y="1430" width="144" height="100" as="geometry"/>
        </mxCell>
        <mxCell id="YYaNBqdhBjBN7z7zkRMa-32" value="本地内存A" style="text;html=1;strokeColor=none;fillColor=none;align=center;verticalAlign=middle;whiteSpace=wrap;rounded=0;" vertex="1" parent="1">
          <mxGeometry x="148.5" y="1440" width="72" height="20" as="geometry"/>
        </mxCell>
        <mxCell id="YYaNBqdhBjBN7z7zkRMa-33" style="edgeStyle=orthogonalEdgeStyle;rounded=0;orthogonalLoop=1;jettySize=auto;html=1;exitX=0.5;exitY=1;exitDx=0;exitDy=0;" edge="1" parent="1" source="YYaNBqdhBjBN7z7zkRMa-32" target="YYaNBqdhBjBN7z7zkRMa-32">
          <mxGeometry relative="1" as="geometry"/>
        </mxCell>
        <mxCell id="YYaNBqdhBjBN7z7zkRMa-34" value="共享变量的副本" style="ellipse;whiteSpace=wrap;html=1;" vertex="1" parent="1">
          <mxGeometry x="144.5" y="1460" width="94" height="60" as="geometry"/>
        </mxCell>
        <mxCell id="YYaNBqdhBjBN7z7zkRMa-35" value="" style="rounded=0;whiteSpace=wrap;html=1;" vertex="1" parent="1">
          <mxGeometry x="110" y="1570" width="420" height="70" as="geometry"/>
        </mxCell>
        <mxCell id="YYaNBqdhBjBN7z7zkRMa-36" value="共享变量" style="ellipse;whiteSpace=wrap;html=1;" vertex="1" parent="1">
          <mxGeometry x="158" y="1582.5" width="62" height="45" as="geometry"/>
        </mxCell>
        <mxCell id="YYaNBqdhBjBN7z7zkRMa-37" value="共享变量" style="ellipse;whiteSpace=wrap;html=1;" vertex="1" parent="1">
          <mxGeometry x="235.5" y="1582.5" width="62" height="45" as="geometry"/>
        </mxCell>
        <mxCell id="YYaNBqdhBjBN7z7zkRMa-38" value="共享变量" style="ellipse;whiteSpace=wrap;html=1;" vertex="1" parent="1">
          <mxGeometry x="367.5" y="1582.5" width="62" height="45" as="geometry"/>
        </mxCell>
        <mxCell id="YYaNBqdhBjBN7z7zkRMa-39" value="共享变量" style="ellipse;whiteSpace=wrap;html=1;" vertex="1" parent="1">
          <mxGeometry x="438" y="1582.5" width="62" height="45" as="geometry"/>
        </mxCell>
        <mxCell id="YYaNBqdhBjBN7z7zkRMa-40" value="" style="endArrow=classic;startArrow=classic;html=1;entryX=0.5;entryY=1;entryDx=0;entryDy=0;exitX=0.462;exitY=-0.01;exitDx=0;exitDy=0;exitPerimeter=0;" edge="1" parent="1" source="YYaNBqdhBjBN7z7zkRMa-31" target="YYaNBqdhBjBN7z7zkRMa-30">
          <mxGeometry width="50" height="50" relative="1" as="geometry">
            <mxPoint x="150" y="1440" as="sourcePoint"/>
            <mxPoint x="200" y="1390" as="targetPoint"/>
          </mxGeometry>
        </mxCell>
        <mxCell id="YYaNBqdhBjBN7z7zkRMa-41" value="" style="endArrow=classic;startArrow=classic;html=1;entryX=0.462;entryY=1;entryDx=0;entryDy=0;entryPerimeter=0;exitX=0.25;exitY=0;exitDx=0;exitDy=0;" edge="1" parent="1" source="YYaNBqdhBjBN7z7zkRMa-35" target="YYaNBqdhBjBN7z7zkRMa-31">
          <mxGeometry width="50" height="50" relative="1" as="geometry">
            <mxPoint x="140" y="1600" as="sourcePoint"/>
            <mxPoint x="190" y="1550" as="targetPoint"/>
          </mxGeometry>
        </mxCell>
        <mxCell id="YYaNBqdhBjBN7z7zkRMa-42" value="Thread B" style="rounded=0;whiteSpace=wrap;html=1;" vertex="1" parent="1">
          <mxGeometry x="357.5" y="1342.5" width="143" height="40" as="geometry"/>
        </mxCell>
        <mxCell id="YYaNBqdhBjBN7z7zkRMa-43" value="" style="rounded=0;whiteSpace=wrap;html=1;" vertex="1" parent="1">
          <mxGeometry x="362" y="1430" width="144" height="100" as="geometry"/>
        </mxCell>
        <mxCell id="YYaNBqdhBjBN7z7zkRMa-44" value="本地内存A" style="text;html=1;strokeColor=none;fillColor=none;align=center;verticalAlign=middle;whiteSpace=wrap;rounded=0;" vertex="1" parent="1">
          <mxGeometry x="391" y="1440" width="72" height="20" as="geometry"/>
        </mxCell>
        <mxCell id="YYaNBqdhBjBN7z7zkRMa-45" style="edgeStyle=orthogonalEdgeStyle;rounded=0;orthogonalLoop=1;jettySize=auto;html=1;exitX=0.5;exitY=1;exitDx=0;exitDy=0;" edge="1" parent="1" source="YYaNBqdhBjBN7z7zkRMa-44" target="YYaNBqdhBjBN7z7zkRMa-44">
          <mxGeometry relative="1" as="geometry"/>
        </mxCell>
        <mxCell id="YYaNBqdhBjBN7z7zkRMa-46" value="共享变量的副本" style="ellipse;whiteSpace=wrap;html=1;" vertex="1" parent="1">
          <mxGeometry x="387" y="1460" width="94" height="60" as="geometry"/>
        </mxCell>
        <mxCell id="YYaNBqdhBjBN7z7zkRMa-47" value="" style="endArrow=classic;startArrow=classic;html=1;entryX=0.5;entryY=1;entryDx=0;entryDy=0;exitX=0.462;exitY=-0.01;exitDx=0;exitDy=0;exitPerimeter=0;" edge="1" parent="1" source="YYaNBqdhBjBN7z7zkRMa-43" target="YYaNBqdhBjBN7z7zkRMa-42">
          <mxGeometry width="50" height="50" relative="1" as="geometry">
            <mxPoint x="392.5" y="1440" as="sourcePoint"/>
            <mxPoint x="442.5" y="1390" as="targetPoint"/>
          </mxGeometry>
        </mxCell>
        <mxCell id="YYaNBqdhBjBN7z7zkRMa-48" value="" style="endArrow=classic;startArrow=classic;html=1;entryX=0.5;entryY=1;entryDx=0;entryDy=0;" edge="1" parent="1" target="YYaNBqdhBjBN7z7zkRMa-43">
          <mxGeometry width="50" height="50" relative="1" as="geometry">
            <mxPoint x="420" y="1570" as="sourcePoint"/>
            <mxPoint x="470" y="1520" as="targetPoint"/>
          </mxGeometry>
        </mxCell>
        <mxCell id="YYaNBqdhBjBN7z7zkRMa-49" style="edgeStyle=orthogonalEdgeStyle;rounded=0;orthogonalLoop=1;jettySize=auto;html=1;exitX=0;exitY=0.5;exitDx=0;exitDy=0;" edge="1" parent="1" source="YYaNBqdhBjBN7z7zkRMa-51">
          <mxGeometry relative="1" as="geometry">
            <mxPoint x="200" y="1545" as="targetPoint"/>
          </mxGeometry>
        </mxCell>
        <mxCell id="YYaNBqdhBjBN7z7zkRMa-50" style="edgeStyle=orthogonalEdgeStyle;rounded=0;orthogonalLoop=1;jettySize=auto;html=1;exitX=1;exitY=0.5;exitDx=0;exitDy=0;" edge="1" parent="1" source="YYaNBqdhBjBN7z7zkRMa-51">
          <mxGeometry relative="1" as="geometry">
            <mxPoint x="430" y="1545" as="targetPoint"/>
          </mxGeometry>
        </mxCell>
        <mxCell id="YYaNBqdhBjBN7z7zkRMa-51" value="JMM控制" style="text;html=1;strokeColor=none;fillColor=none;align=center;verticalAlign=middle;whiteSpace=wrap;rounded=0;" vertex="1" parent="1">
          <mxGeometry x="275" y="1530" width="90" height="30" as="geometry"/>
        </mxCell>
        <mxCell id="YYaNBqdhBjBN7z7zkRMa-52" value="主内存" style="text;html=1;strokeColor=none;fillColor=none;align=center;verticalAlign=middle;whiteSpace=wrap;rounded=0;" vertex="1" parent="1">
          <mxGeometry x="307.5" y="1607.5" width="40" height="20" as="geometry"/>
        </mxCell>
        <mxCell id="YYaNBqdhBjBN7z7zkRMa-53" value="&lt;h1&gt;lock（锁定）&lt;/h1&gt;&lt;p&gt;作用于主内存的变量，把一个变量标识为一条线程独占的状态&lt;/p&gt;" style="text;html=1;strokeColor=none;fillColor=none;spacing=5;spacingTop=-20;whiteSpace=wrap;overflow=hidden;rounded=0;" vertex="1" parent="1">
          <mxGeometry x="126" y="1710" width="334" height="70" as="geometry"/>
        </mxCell>
        <mxCell id="YYaNBqdhBjBN7z7zkRMa-54" value="&lt;h1&gt;unlock（解锁）&lt;/h1&gt;&lt;p&gt;作用于主内存的变量，把一个变量标识释放的状态&lt;/p&gt;" style="text;html=1;strokeColor=none;fillColor=none;spacing=5;spacingTop=-20;whiteSpace=wrap;overflow=hidden;rounded=0;" vertex="1" parent="1">
          <mxGeometry x="126" y="1790" width="334" height="70" as="geometry"/>
        </mxCell>
        <mxCell id="YYaNBqdhBjBN7z7zkRMa-55" value="&lt;h1&gt;read（读取）&lt;/h1&gt;&lt;p&gt;作用于主内存的变量，把一个变量从主内存传输到线程的工作内存中，以便load动作使用&lt;/p&gt;" style="text;html=1;strokeColor=none;fillColor=none;spacing=5;spacingTop=-20;whiteSpace=wrap;overflow=hidden;rounded=0;" vertex="1" parent="1">
          <mxGeometry x="126" y="1900" width="334" height="80" as="geometry"/>
        </mxCell>
        <mxCell id="YYaNBqdhBjBN7z7zkRMa-56" value="&lt;h1&gt;load（载入）&lt;/h1&gt;&lt;p&gt;作用于工作内存的变量，把一个read传输的变量值放入到工作内存的变量副本中&lt;/p&gt;" style="text;html=1;strokeColor=none;fillColor=none;spacing=5;spacingTop=-20;whiteSpace=wrap;overflow=hidden;rounded=0;" vertex="1" parent="1">
          <mxGeometry x="129" y="2000" width="334" height="80" as="geometry"/>
        </mxCell>
        <mxCell id="YYaNBqdhBjBN7z7zkRMa-57" value="&lt;h1&gt;use（使用）&lt;/h1&gt;&lt;p&gt;作用与工作内存的变量，把工作内存中的一个变量值传递个执行引擎&lt;/p&gt;" style="text;html=1;strokeColor=none;fillColor=none;spacing=5;spacingTop=-20;whiteSpace=wrap;overflow=hidden;rounded=0;" vertex="1" parent="1">
          <mxGeometry x="487" y="1700" width="334" height="80" as="geometry"/>
        </mxCell>
        <mxCell id="YYaNBqdhBjBN7z7zkRMa-58" value="&lt;h1&gt;assig（赋值）&lt;/h1&gt;&lt;p&gt;作用与工作内存的变量，把它一个冲执行引擎接受到的值赋值给工作内存的变量&lt;/p&gt;" style="text;html=1;strokeColor=none;fillColor=none;spacing=5;spacingTop=-20;whiteSpace=wrap;overflow=hidden;rounded=0;" vertex="1" parent="1">
          <mxGeometry x="487" y="1790" width="334" height="90" as="geometry"/>
        </mxCell>
        <mxCell id="YYaNBqdhBjBN7z7zkRMa-59" value="&lt;h1&gt;store（存储）&lt;/h1&gt;&lt;p&gt;作用与工作内存的变量，把工作内存中的一个变量之传送到主内存中，以便随后的write的操作&lt;br&gt;&lt;/p&gt;" style="text;html=1;strokeColor=none;fillColor=none;spacing=5;spacingTop=-20;whiteSpace=wrap;overflow=hidden;rounded=0;" vertex="1" parent="1">
          <mxGeometry x="487" y="1900" width="334" height="80" as="geometry"/>
        </mxCell>
        <mxCell id="YYaNBqdhBjBN7z7zkRMa-60" value="&lt;h1&gt;write（写入）&lt;/h1&gt;&lt;p&gt;作用与主内存变量，把store操作从工作内存中的一个变量的值传递到主内存的变量中&lt;/p&gt;" style="text;html=1;strokeColor=none;fillColor=none;spacing=5;spacingTop=-20;whiteSpace=wrap;overflow=hidden;rounded=0;" vertex="1" parent="1">
          <mxGeometry x="490" y="2000" width="334" height="80" as="geometry"/>
        </mxCell>
        <mxCell id="YYaNBqdhBjBN7z7zkRMa-61" value="主内存" style="rounded=1;whiteSpace=wrap;html=1;fillColor=#dae8fc;strokeColor=#6c8ebf;" vertex="1" parent="1">
          <mxGeometry x="125" y="2290" width="120" height="60" as="geometry"/>
        </mxCell>
        <mxCell id="YYaNBqdhBjBN7z7zkRMa-62" value="save/load" style="rounded=1;whiteSpace=wrap;html=1;fillColor=#dae8fc;strokeColor=#6c8ebf;" vertex="1" parent="1">
          <mxGeometry x="294.5" y="2290" width="120" height="60" as="geometry"/>
        </mxCell>
        <mxCell id="YYaNBqdhBjBN7z7zkRMa-63" value="" style="edgeStyle=orthogonalEdgeStyle;rounded=0;orthogonalLoop=1;jettySize=auto;html=1;" edge="1" parent="1" source="YYaNBqdhBjBN7z7zkRMa-64" target="YYaNBqdhBjBN7z7zkRMa-65">
          <mxGeometry relative="1" as="geometry"/>
        </mxCell>
        <mxCell id="YYaNBqdhBjBN7z7zkRMa-64" value="工作内存" style="rounded=1;whiteSpace=wrap;html=1;fillColor=#d5e8d4;strokeColor=#82b366;" vertex="1" parent="1">
          <mxGeometry x="506" y="2230" width="96" height="40" as="geometry"/>
        </mxCell>
        <mxCell id="YYaNBqdhBjBN7z7zkRMa-65" value="Java线程" style="rounded=1;whiteSpace=wrap;html=1;fillColor=#d5e8d4;strokeColor=#82b366;" vertex="1" parent="1">
          <mxGeometry x="682" y="2230" width="96" height="40" as="geometry"/>
        </mxCell>
        <mxCell id="YYaNBqdhBjBN7z7zkRMa-66" style="edgeStyle=orthogonalEdgeStyle;rounded=0;orthogonalLoop=1;jettySize=auto;html=1;exitX=1;exitY=0.5;exitDx=0;exitDy=0;entryX=0;entryY=0.5;entryDx=0;entryDy=0;" edge="1" parent="1" source="YYaNBqdhBjBN7z7zkRMa-67" target="YYaNBqdhBjBN7z7zkRMa-75">
          <mxGeometry relative="1" as="geometry"/>
        </mxCell>
        <mxCell id="YYaNBqdhBjBN7z7zkRMa-67" value="工作内存" style="rounded=1;whiteSpace=wrap;html=1;fillColor=#d5e8d4;strokeColor=#82b366;" vertex="1" parent="1">
          <mxGeometry x="506" y="2350" width="96" height="40" as="geometry"/>
        </mxCell>
        <mxCell id="YYaNBqdhBjBN7z7zkRMa-68" style="edgeStyle=orthogonalEdgeStyle;rounded=0;orthogonalLoop=1;jettySize=auto;html=1;exitX=1;exitY=0.5;exitDx=0;exitDy=0;entryX=0;entryY=0.5;entryDx=0;entryDy=0;" edge="1" parent="1" source="YYaNBqdhBjBN7z7zkRMa-69" target="YYaNBqdhBjBN7z7zkRMa-74">
          <mxGeometry relative="1" as="geometry"/>
        </mxCell>
        <mxCell id="YYaNBqdhBjBN7z7zkRMa-69" value="工作内存" style="rounded=1;whiteSpace=wrap;html=1;fillColor=#d5e8d4;strokeColor=#82b366;" vertex="1" parent="1">
          <mxGeometry x="507" y="2290" width="96" height="40" as="geometry"/>
        </mxCell>
        <mxCell id="YYaNBqdhBjBN7z7zkRMa-70" value="" style="endArrow=classic;startArrow=classic;html=1;exitX=1;exitY=0.5;exitDx=0;exitDy=0;entryX=0;entryY=0.5;entryDx=0;entryDy=0;" edge="1" parent="1" source="YYaNBqdhBjBN7z7zkRMa-61" target="YYaNBqdhBjBN7z7zkRMa-62">
          <mxGeometry width="50" height="50" relative="1" as="geometry">
            <mxPoint x="256" y="2410" as="sourcePoint"/>
            <mxPoint x="306" y="2360" as="targetPoint"/>
          </mxGeometry>
        </mxCell>
        <mxCell id="YYaNBqdhBjBN7z7zkRMa-71" value="" style="endArrow=classic;html=1;exitX=1;exitY=0.5;exitDx=0;exitDy=0;entryX=0;entryY=0.5;entryDx=0;entryDy=0;" edge="1" parent="1" source="YYaNBqdhBjBN7z7zkRMa-62" target="YYaNBqdhBjBN7z7zkRMa-64">
          <mxGeometry width="50" height="50" relative="1" as="geometry">
            <mxPoint x="426" y="2310" as="sourcePoint"/>
            <mxPoint x="476" y="2260" as="targetPoint"/>
          </mxGeometry>
        </mxCell>
        <mxCell id="YYaNBqdhBjBN7z7zkRMa-72" value="" style="endArrow=classic;html=1;entryX=0;entryY=0.5;entryDx=0;entryDy=0;" edge="1" parent="1" target="YYaNBqdhBjBN7z7zkRMa-69">
          <mxGeometry width="50" height="50" relative="1" as="geometry">
            <mxPoint x="416" y="2320" as="sourcePoint"/>
            <mxPoint x="446" y="2350" as="targetPoint"/>
          </mxGeometry>
        </mxCell>
        <mxCell id="YYaNBqdhBjBN7z7zkRMa-73" value="" style="endArrow=classic;html=1;exitX=1;exitY=0.5;exitDx=0;exitDy=0;entryX=0;entryY=0.5;entryDx=0;entryDy=0;" edge="1" parent="1" source="YYaNBqdhBjBN7z7zkRMa-62" target="YYaNBqdhBjBN7z7zkRMa-67">
          <mxGeometry width="50" height="50" relative="1" as="geometry">
            <mxPoint x="416" y="2410" as="sourcePoint"/>
            <mxPoint x="466" y="2360" as="targetPoint"/>
          </mxGeometry>
        </mxCell>
        <mxCell id="YYaNBqdhBjBN7z7zkRMa-74" value="Java线程" style="rounded=1;whiteSpace=wrap;html=1;fillColor=#d5e8d4;strokeColor=#82b366;" vertex="1" parent="1">
          <mxGeometry x="682" y="2290" width="96" height="40" as="geometry"/>
        </mxCell>
        <mxCell id="YYaNBqdhBjBN7z7zkRMa-75" value="Java线程" style="rounded=1;whiteSpace=wrap;html=1;fillColor=#d5e8d4;strokeColor=#82b366;" vertex="1" parent="1">
          <mxGeometry x="682" y="2350" width="96" height="40" as="geometry"/>
        </mxCell>
        <mxCell id="YYaNBqdhBjBN7z7zkRMa-76" value="Load" style="text;html=1;strokeColor=#b85450;fillColor=#f8cecc;align=center;verticalAlign=middle;whiteSpace=wrap;rounded=0;" vertex="1" parent="1">
          <mxGeometry x="406" y="2210" width="57" height="30" as="geometry"/>
        </mxCell>
        <mxCell id="YYaNBqdhBjBN7z7zkRMa-77" value="Use" style="text;html=1;strokeColor=#b85450;fillColor=#f8cecc;align=center;verticalAlign=middle;whiteSpace=wrap;rounded=0;" vertex="1" parent="1">
          <mxGeometry x="609" y="2195" width="57" height="30" as="geometry"/>
        </mxCell>
        <mxCell id="YYaNBqdhBjBN7z7zkRMa-78" value="Read" style="text;html=1;strokeColor=#b85450;fillColor=#f8cecc;align=center;verticalAlign=middle;whiteSpace=wrap;rounded=0;" vertex="1" parent="1">
          <mxGeometry x="242.5" y="2240" width="57" height="30" as="geometry"/>
        </mxCell>
        <mxCell id="YYaNBqdhBjBN7z7zkRMa-79" value="Write" style="text;html=1;strokeColor=#b85450;fillColor=#f8cecc;align=center;verticalAlign=middle;whiteSpace=wrap;rounded=0;" vertex="1" parent="1">
          <mxGeometry x="244" y="2360" width="57" height="30" as="geometry"/>
        </mxCell>
        <mxCell id="YYaNBqdhBjBN7z7zkRMa-80" value="Store" style="text;html=1;strokeColor=#b85450;fillColor=#f8cecc;align=center;verticalAlign=middle;whiteSpace=wrap;rounded=0;" vertex="1" parent="1">
          <mxGeometry x="421" y="2375" width="57" height="30" as="geometry"/>
        </mxCell>
        <mxCell id="YYaNBqdhBjBN7z7zkRMa-81" value="Assign" style="text;html=1;strokeColor=#b85450;fillColor=#f8cecc;align=center;verticalAlign=middle;whiteSpace=wrap;rounded=0;" vertex="1" parent="1">
          <mxGeometry x="617.5" y="2390" width="57" height="30" as="geometry"/>
        </mxCell>
      </root>
    </mxGraphModel>
  </diagram>
</mxfile>
